<svg width="104" height="50" viewBox="0 0 104 50" fill="none" xmlns="http://www.w3.org/2000/svg">
<path d="M33.6643 28.1607C33.2496 27.7462 32.9207 27.254 32.6962 26.7122C32.4718 26.1705 32.3563 25.5899 32.3563 25.0036C32.3563 24.4172 32.4718 23.8366 32.6962 23.2949C32.9207 22.7532 33.2496 22.261 33.6643 21.8464L48.8464 6.66428C49.261 6.24961 49.7532 5.92067 50.2949 5.69624C50.8366 5.47182 51.4172 5.35631 52.0036 5.35631C52.5899 5.35631 53.1705 5.47182 53.7123 5.69624C54.254 5.92067 54.7462 6.24961 55.1607 6.66428L70.3429 21.8464C70.7575 22.261 71.0865 22.7532 71.3109 23.2949C71.5353 23.8366 71.6508 24.4172 71.6508 25.0036C71.6508 25.5899 71.5353 26.1705 71.3109 26.7122C71.0865 27.254 70.7575 27.7462 70.3429 28.1607L55.1607 43.3429C54.7462 43.7575 54.254 44.0865 53.7123 44.3109C53.1705 44.5353 52.5899 44.6508 52.0036 44.6508C51.4172 44.6508 50.8366 44.5353 50.2949 44.3109C49.7532 44.0865 49.261 43.7575 48.8464 43.3429L33.6643 28.1607Z" fill="white"/>
<path d="M69.3314 27.5286C68.9997 27.1969 68.7365 26.8032 68.557 26.3698C68.3775 25.9364 68.285 25.4719 68.285 25.0029C68.285 24.5338 68.3775 24.0693 68.557 23.6359C68.7365 23.2025 68.9997 22.8088 69.3314 22.4771L81.4771 10.3314C81.8088 9.99969 82.2025 9.73654 82.6359 9.557C83.0693 9.37746 83.5338 9.28505 84.0029 9.28505C84.4719 9.28505 84.9364 9.37746 85.3698 9.557C85.8032 9.73654 86.1969 9.99969 86.5286 10.3314L98.6743 22.4771C99.006 22.8088 99.2692 23.2025 99.4487 23.6359C99.6283 24.0693 99.7207 24.5338 99.7207 25.0029C99.7207 25.4719 99.6283 25.9364 99.4487 26.3698C99.2692 26.8032 99.006 27.1969 98.6743 27.5286L86.5286 39.6743C86.1969 40.006 85.8032 40.2692 85.3698 40.4487C84.9364 40.6283 84.4719 40.7207 84.0029 40.7207C83.5338 40.7207 83.0693 40.6283 82.6359 40.4487C82.2025 40.2692 81.8088 40.006 81.4771 39.6743L69.3314 27.5286Z" fill="white"/>
<path d="M5.33143 27.5286C4.99969 27.1969 4.73654 26.8032 4.557 26.3698C4.37746 25.9364 4.28505 25.4719 4.28505 25.0029C4.28505 24.5338 4.37746 24.0693 4.557 23.6359C4.73654 23.2025 4.99969 22.8088 5.33143 22.4771L17.4771 10.3314C17.8088 9.99969 18.2025 9.73654 18.6359 9.557C19.0693 9.37746 19.5338 9.28505 20.0029 9.28505C20.4719 9.28505 20.9364 9.37746 21.3698 9.557C21.8032 9.73654 22.1969 9.99969 22.5286 10.3314L34.6743 22.4771C35.006 22.8088 35.2692 23.2025 35.4487 23.6359C35.6283 24.0693 35.7207 24.5338 35.7207 25.0029C35.7207 25.4719 35.6283 25.9364 35.4487 26.3698C35.2692 26.8032 35.006 27.1969 34.6743 27.5286L22.5286 39.6743C22.1969 40.006 21.8032 40.2692 21.3698 40.4487C20.9364 40.6283 20.4719 40.7207 20.0029 40.7207C19.5338 40.7207 19.0693 40.6283 18.6359 40.4487C18.2025 40.2692 17.8088 40.006 17.4771 39.6743L5.33143 27.5286Z" fill="white"/>
</svg>
